<?xml version="1.0" encoding="UTF-8"?>
<svg id="Layer_1" data-name="Layer 1" xmlns="http://www.w3.org/2000/svg" viewBox="0 0 512.353 350">
  <defs>
    <style>
      .cls-1 {
        fill: #4878bb;
      }
    </style>
  </defs>
  <path class="cls-1" d="M153.571,205.21h205.21V0H153.571V205.21Zm80.529-124.107v40.49h44.156v-40.49h24.199v95.945h-24.199v-42.635h-44.156v42.635h-24.202V81.103h24.202Zm-55.579-52.941h6.406v38.86h-6.406V28.162Zm213.914,272.613v-39.238h7.568v39.238h-7.568Zm112.314-39.238h7.604v39.238h-7.604v-32.167h-.238l-18.463,32.167h-1.562l-18.67-31.899h-.507v31.899h-3.361v-39.238h7.74l17.513,30.094h.374l17.175-30.094Zm-57.633,0h3.326v25.478c0,2.012-.374,3.906-1.119,5.681-.748,1.776-1.919,3.329-3.514,4.661-1.595,1.332-3.637,2.387-6.126,3.166-2.491,.779-5.476,1.169-8.961,1.169-3.1,0-5.844-.39-8.23-1.169-2.389-.779-4.391-1.839-6.009-3.181-1.618-1.341-2.839-2.915-3.666-4.72-.825-1.806-1.238-3.734-1.238-5.785v-25.301h7.568v25.478c0,1.677,.328,3.251,.986,4.72,.656,1.47,1.595,2.757,2.816,3.861,1.221,1.106,2.7,1.978,4.43,2.619,1.731,.641,3.66,.961,5.785,.961,2.151,0,4.086-.32,5.804-.961,1.72-.641,3.186-1.514,4.397-2.619,1.209-1.104,2.138-2.392,2.783-3.861,.645-1.469,.967-3.043,.967-4.72v-25.478ZM61.944,300.775v-16.334l-17.989-22.904h7.738l15.613,19.885,15.546-19.885h4.107l-17.446,22.282v16.957h-7.569Zm284.297,0h-3.428v-39.238h4.242l29.495,28.704h.34v-28.704h3.326v40.156h-1.764l-31.94-31.9h-.272v30.983Zm-192.383-18.436h5.297l15.646,18.436h8.79l-16.394-19.028c1.631-.355,3.123-.843,4.48-1.465,1.359-.621,2.518-1.361,3.48-2.219,.96-.858,1.708-1.82,2.24-2.885,.53-1.065,.798-2.209,.798-3.433,0-1.479-.347-2.846-1.036-4.098-.691-1.253-1.714-2.332-3.071-3.24-1.359-.907-3.057-1.613-5.092-2.116-2.036-.502-4.401-.754-7.095-.754h-15.613v39.238h7.568v-18.436Zm0-18.347h6.654c1.38,0,2.651,.197,3.819,.592,1.165,.396,2.171,.943,3.021,1.643,.848,.7,1.503,1.543,1.967,2.529,.463,.987,.697,2.071,.697,3.255,0,1.283-.294,2.436-.883,3.463-.589,1.026-1.409,1.899-2.462,2.618-1.052,.72-2.297,1.278-3.733,1.672-1.436,.395-3.004,.592-4.7,.592h-4.38v-16.365Zm80.186,6.689c-1.073-1.499-2.357-2.866-3.852-4.098-1.493-1.233-3.161-2.288-5.007-3.166-1.844-.878-3.829-1.559-5.957-2.042-2.125-.483-4.355-.725-6.685-.725s-4.56,.242-6.687,.725c-2.127,.483-4.107,1.164-5.94,2.042-1.833,.878-3.501,1.933-5.007,3.166-1.505,1.233-2.787,2.599-3.852,4.098-1.063,1.499-1.883,3.117-2.46,4.852-.578,1.737-.866,3.542-.866,5.416,0,2.86,.639,5.548,1.919,8.063,1.278,2.516,3.032,4.716,5.259,6.6,2.23,1.883,4.854,3.369,7.875,4.453,3.021,1.085,6.274,1.627,9.759,1.627,2.33,0,4.56-.247,6.685-.74,2.127-.493,4.113-1.193,5.957-2.101,1.846-.907,3.514-1.992,5.007-3.255,1.495-1.262,2.779-2.663,3.852-4.202,1.075-1.539,1.902-3.19,2.478-4.956,.578-1.765,.866-3.595,.866-5.489,0-1.874-.288-3.679-.866-5.416-.576-1.735-1.403-3.353-2.478-4.852Zm-6.583,17.784c-.691,2.288-1.714,4.272-3.073,5.948-1.357,1.677-3.025,2.983-5.005,3.92-1.981,.938-4.261,1.406-6.84,1.406-2.627,0-4.927-.469-6.907-1.406-1.981-.936-3.645-2.243-4.99-3.92-1.347-1.677-2.359-3.66-3.038-5.948-.678-2.288-1.019-4.794-1.019-7.516,0-2.703,.34-5.179,1.019-7.428,.679-2.249,1.691-4.187,3.038-5.815,1.345-1.627,3.009-2.889,4.99-3.788,1.979-.897,4.28-1.346,6.907-1.346,2.578,0,4.858,.449,6.84,1.346,1.979,.899,3.647,2.161,5.005,3.788,1.359,1.628,2.382,3.566,3.073,5.815,.689,2.248,1.033,4.725,1.033,7.428,0,2.723-.345,5.228-1.033,7.516Zm-98.991-22.194c-2.219-1.657-4.99-2.86-8.316-3.61-3.326-.749-7.297-1.124-11.913-1.124h-15.003v39.238h16.801c4.186,0,7.902-.522,11.151-1.568,3.247-1.046,5.973-2.471,8.18-4.276,2.205-1.806,3.879-3.921,5.023-6.348,1.142-2.426,1.714-5.02,1.714-7.783,0-2.9-.641-5.573-1.919-8.02-1.278-2.446-3.186-4.616-5.719-6.51Zm-2.664,21.972c-.962,2.101-2.276,3.872-3.938,5.312-1.664,1.441-3.616,2.526-5.854,3.256-2.24,.73-4.629,1.094-7.163,1.094h-8.045v-33.467h8.08c2.668,0,5.13,.404,7.381,1.213,2.253,.809,4.192,1.943,5.821,3.403,1.631,1.46,2.898,3.201,3.802,5.223,.906,2.022,1.359,4.246,1.359,6.673,0,2.762-.482,5.193-1.443,7.294Zm184.387-24.162v14.027h15.886v2.544h-15.886v17.578h23.726v2.545h-31.295v-39.238h31.295v2.544h-23.726Zm-280.016-2.544h7.568v39.238h-7.568v-18.82H7.568v18.82H0v-39.238H7.568v17.873H30.176v-17.873Zm247.502,39.904c-1.856,.167-3.961,.252-6.314,.252-2.489,0-4.852-.242-7.092-.726-2.24-.483-4.318-1.168-6.23-2.057-1.913-.887-3.637-1.948-5.176-3.181-1.539-1.233-2.846-2.599-3.919-4.098-1.075-1.499-1.908-3.107-2.495-4.824-.589-1.716-.883-3.501-.883-5.355,0-1.835,.278-3.626,.831-5.371,.555-1.747,1.353-3.393,2.393-4.942,1.042-1.548,2.309-2.964,3.802-4.247,1.495-1.282,3.18-2.386,5.057-3.314,1.879-.928,3.927-1.647,6.144-2.161,2.217-.513,4.57-.769,7.059-.769,2.376,0,4.577,.281,6.602,.843,2.025,.563,3.871,1.307,5.533,2.234,1.664,.928,3.14,1.998,4.43,3.211,1.288,1.213,2.397,2.48,3.326,3.802l-3.259,1.895c-1.9-3.177-4.011-5.499-6.33-6.969-2.32-1.47-4.984-2.205-7.992-2.205-2.716,0-5.222,.42-7.518,1.258-2.297,.838-4.276,2.042-5.94,3.61-1.664,1.568-2.959,3.463-3.886,5.682-.929,2.219-1.393,4.7-1.393,7.442,0,2.762,.503,5.252,1.512,7.471,1.006,2.219,2.386,4.109,4.14,5.668,1.754,1.559,3.819,2.757,6.195,3.595,2.376,.838,4.921,1.257,7.635,1.257,1.969,0,3.746-.231,5.33-.695,1.583-.463,3.009-1.129,4.276-1.997v-13.76h-8.518v-2.338h16.087v17.252c-1.311,.612-2.635,1.154-3.971,1.627-1.334,.474-2.777,.869-4.326,1.184-1.551,.315-3.253,.557-5.109,.726Zm-219.039,36.721c-.635-.429-1.464-.707-2.409-.895,.525-.176,1.048-.353,1.472-.636,1.122-.749,1.683-1.83,1.683-3.247,0-1.449-.588-2.552-1.765-3.308-1.178-.758-2.799-1.138-4.862-1.138h-8.176v17.285h8.691c2.337,0,4.098-.416,5.284-1.247,1.185-.831,1.779-1.988,1.779-3.468,0-1.466-.566-2.581-1.698-3.347Zm-11.367-7.272h5.296c1.322,0,2.332,.238,3.028,.717,.698,.476,1.046,1.184,1.046,2.122,0,.924-.349,1.624-1.046,2.1-.696,.476-1.706,.717-3.028,.717h-5.296v-5.655Zm9.221,12.655c-.734,.486-1.824,.727-3.273,.727h-5.948v-5.85h5.948c1.449,0,2.539,.231,3.273,.69,.733,.462,1.1,1.193,1.1,2.197s-.367,1.75-1.1,2.236Zm24.825-12.298c-.915-.797-1.983-1.414-3.206-1.852-1.221-.435-2.557-.654-4.005-.654-1.467,0-2.816,.224-4.048,.666-1.231,.445-2.299,1.067-3.205,1.866-.905,.797-1.611,1.731-2.118,2.802-.508,1.069-.761,2.238-.761,3.505s.253,2.438,.761,3.507c.507,1.07,1.213,2.005,2.118,2.802,.905,.799,1.978,1.419,3.219,1.864,1.239,.445,2.583,.666,4.033,.666s2.784-.216,4.005-.654c1.223-.435,2.291-1.052,3.206-1.852,.914-.797,1.62-1.733,2.118-2.802,.498-1.069,.747-2.246,.747-3.531s-.249-2.46-.747-3.531c-.498-1.07-1.204-2.003-2.118-2.802Zm-.408,8.975c-.371,.807-.887,1.512-1.547,2.112-.662,.6-1.44,1.064-2.337,1.395-.896,.328-1.869,.493-2.919,.493-1.069,0-2.051-.165-2.947-.493-.897-.331-1.681-.795-2.35-1.395-.669-.6-1.191-1.305-1.561-2.112-.371-.804-.557-1.687-.557-2.642s.186-1.835,.557-2.642c.371-.807,.892-1.509,1.561-2.109,.67-.603,1.453-1.067,2.35-1.395,.896-.33,1.878-.496,2.947-.496,1.05,0,2.023,.165,2.919,.496,.897,.328,1.674,.792,2.337,1.395,.66,.6,1.176,1.303,1.547,2.109,.372,.807,.558,1.687,.558,2.642s-.186,1.837-.558,2.642Zm19.936-1.184c.515,.673,.774,1.456,.774,2.345,0,.838-.236,1.584-.706,2.233-.471,.651-1.109,1.193-1.915,1.631-.806,.435-1.721,.753-2.743,.95-1.023,.197-2.096,.263-3.219,.197-1.123-.066-2.232-.262-3.327-.593-1.096-.328-2.123-.814-3.083-1.456l.95-1.828c.834,.593,1.752,1.038,2.757,1.334,1.005,.297,2.005,.447,3.001,.457,.995,.007,1.915-.112,2.756-.36,.842-.246,1.517-.617,2.025-1.111,.507-.493,.759-1.103,.759-1.828,0-.887-.394-1.563-1.181-2.025-.788-.459-1.879-.69-3.273-.69h-4.237v-2h4.047c1.213,0,2.159-.226,2.839-.678,.679-.454,1.018-1.084,1.018-1.891,0-.607-.203-1.123-.611-1.543-.407-.418-.96-.736-1.656-.95-.698-.214-1.485-.323-2.363-.333-.879-.007-1.779,.1-2.701,.321-.923,.224-1.812,.574-2.662,1.05l-.869-2.025c1.158-.593,2.367-1.009,3.626-1.247,1.258-.238,2.475-.314,3.653-.224,1.176,.092,2.241,.338,3.191,.741,.95,.403,1.711,.931,2.282,1.58,.57,.651,.855,1.429,.855,2.333,0,.824-.236,1.553-.707,2.187-.47,.632-1.123,1.118-1.955,1.456-.143,.058-.314,.083-.466,.131,.33,.08,.672,.147,.969,.265,.932,.369,1.656,.892,2.173,1.568Zm20.045-.877c-.635-.429-1.464-.707-2.409-.895,.525-.176,1.048-.353,1.472-.636,1.122-.749,1.683-1.83,1.683-3.247,0-1.449-.588-2.552-1.764-3.308-1.178-.758-2.799-1.138-4.862-1.138h-8.176v17.285h8.691c2.337,0,4.098-.416,5.284-1.247,1.185-.831,1.779-1.988,1.779-3.468,0-1.466-.566-2.581-1.698-3.347Zm-11.367-7.272h5.296c1.322,0,2.332,.238,3.028,.717,.698,.476,1.046,1.184,1.046,2.122,0,.924-.349,1.624-1.046,2.1-.696,.476-1.706,.717-3.028,.717h-5.296v-5.655Zm9.221,12.655c-.734,.486-1.824,.727-3.273,.727h-5.949v-5.85h5.949c1.448,0,2.538,.231,3.273,.69,.733,.462,1.1,1.193,1.1,2.197s-.367,1.75-1.1,2.236Zm20.736-13.89c-1.178-.476-2.598-.717-4.264-.717h-7.415v17.285h2.716v-5.235h4.699c1.666,0,3.087-.243,4.264-.727,1.176-.486,2.082-1.179,2.716-2.076,.633-.897,.95-1.971,.95-3.223s-.317-2.328-.95-3.235c-.634-.904-1.54-1.594-2.716-2.073Zm-.394,8.173c-.897,.676-2.214,1.011-3.952,1.011h-4.618v-7.753h4.618c1.738,0,3.055,.338,3.952,1.014,.896,.676,1.344,1.628,1.344,2.863s-.448,2.19-1.344,2.865Zm13.538-8.89l-8.61,17.285h2.797l2.089-4.321h10.11l2.089,4.321h2.852l-8.638-17.285h-2.689Zm-2.768,10.988l4.1-8.482,4.099,8.482h-8.199Zm41.88,4.149h2.852v5.925h-2.5v-3.777h-24.173v-17.285h2.689v15.137h7.904v-15.137h2.661v15.137h7.904v-15.137h2.662v15.137Zm13.28-15.137l-8.61,17.285h2.797l2.089-4.321h10.11l2.089,4.321h2.852l-8.637-17.285h-2.689Zm-2.768,10.988l4.1-8.482,4.099,8.482h-8.199Zm20.776,4.149h11.081v2.148h-13.797v-17.285h13.417v2.148h-10.701v5.31h9.533v2.097h-9.533v5.58Zm36.231-15.137l.027,17.285h-2.606l-.026-12.603-6.873,10.503h-1.249l-6.872-10.424v12.524h-2.608v-17.285h2.227l7.927,12.143,7.825-12.143h2.228Zm34.82,0l.027,17.285h-2.605l-.027-12.603-6.873,10.503h-1.249l-6.871-10.422v12.522h-2.608v-17.285h2.226l7.928,12.144,7.826-12.144h2.226Zm22.394,2.309c-.914-.797-1.983-1.414-3.206-1.852-1.22-.435-2.557-.654-4.005-.654-1.466,0-2.814,.224-4.046,.666-1.232,.445-2.299,1.067-3.206,1.866-.904,.797-1.611,1.731-2.117,2.802-.508,1.069-.761,2.238-.761,3.505s.253,2.438,.761,3.507c.506,1.07,1.213,2.005,2.117,2.802,.906,.799,1.978,1.419,3.22,1.864,1.239,.445,2.584,.666,4.032,.666s2.785-.216,4.005-.654c1.223-.435,2.292-1.052,3.206-1.852,.914-.797,1.621-1.733,2.119-2.802,.498-1.069,.746-2.246,.746-3.531s-.248-2.46-.746-3.531c-.498-1.07-1.206-2.003-2.119-2.802Zm-.408,8.975c-.369,.807-.887,1.512-1.546,2.112-.663,.6-1.441,1.064-2.338,1.395-.894,.328-1.869,.493-2.919,.493-1.069,0-2.051-.165-2.946-.493-.897-.331-1.682-.795-2.35-1.395-.671-.6-1.191-1.305-1.563-2.112-.369-.804-.557-1.687-.557-2.642s.187-1.835,.557-2.642c.372-.807,.892-1.509,1.563-2.109,.668-.603,1.453-1.067,2.35-1.395,.894-.33,1.876-.496,2.946-.496,1.05,0,2.025,.165,2.919,.496,.897,.328,1.674,.792,2.338,1.395,.659,.6,1.176,1.303,1.546,2.109,.372,.807,.559,1.687,.559,2.642s-.187,1.837-.559,2.642Zm9.955-11.284h13.392v17.285h-2.664v-15.137h-8.417l-.191,5.063c-.054,1.711-.182,3.211-.382,4.494-.199,1.283-.498,2.355-.894,3.21-.399,.856-.911,1.497-1.536,1.925-.625,.428-1.407,.642-2.348,.642-.272,0-.544-.017-.817-.049-.27-.034-.569-.082-.894-.148l.19-2.197c.289,.066,.578,.097,.868,.097,.797,0,1.431-.287,1.903-.863,.469-.576,.819-1.449,1.045-2.618,.226-1.169,.374-2.642,.447-4.421l.299-7.284Zm35.758,2.309c-.916-.797-1.983-1.414-3.206-1.852-1.223-.435-2.557-.654-4.005-.654-1.468,0-2.817,.224-4.049,.666-1.23,.445-2.299,1.067-3.203,1.866-.906,.797-1.611,1.731-2.119,2.802-.508,1.069-.761,2.238-.761,3.505s.253,2.438,.761,3.507c.508,1.07,1.213,2.005,2.119,2.802,.904,.799,1.978,1.419,3.218,1.864,1.239,.445,2.583,.666,4.034,.666s2.783-.216,4.005-.654c1.222-.435,2.289-1.052,3.206-1.852,.914-.797,1.619-1.733,2.117-2.802,.498-1.069,.749-2.246,.749-3.531s-.25-2.46-.749-3.531c-.498-1.07-1.203-2.003-2.117-2.802Zm-.408,8.975c-.372,.807-.887,1.512-1.548,2.112-.661,.6-1.439,1.064-2.336,1.395-.897,.328-1.869,.493-2.919,.493-1.069,0-2.051-.165-2.948-.493-.897-.331-1.68-.795-2.35-1.395-.668-.6-1.191-1.305-1.56-2.112-.372-.804-.557-1.687-.557-2.642s.185-1.835,.557-2.642c.369-.807,.892-1.509,1.56-2.109,.671-.603,1.453-1.067,2.35-1.395,.897-.33,1.879-.496,2.948-.496,1.05,0,2.022,.165,2.919,.496,.897,.328,1.674,.792,2.336,1.395,.661,.6,1.176,1.303,1.548,2.109,.372,.807,.556,1.687,.556,2.642s-.185,1.837-.556,2.642Zm23.128-11.284h-13.365l-.19,5.556c-.053,1.351-.143,2.615-.27,3.792-.129,1.176-.323,2.204-.586,3.087-.263,.88-.625,1.563-1.086,2.049-.462,.486-1.045,.702-1.752,.654h-.651l-.027,5.925h2.525l.029-3.777h15.642v3.777h2.528v-5.925h-2.797v-15.137Zm-12.835,14.519c.391-.576,.693-1.312,.911-2.209,.216-.897,.384-1.906,.503-3.026,.117-1.118,.202-2.287,.258-3.505l.136-3.631h8.336v12.988h-10.73c.213-.168,.413-.363,.585-.617Zm35.797-12.21c-.914-.797-1.983-1.414-3.206-1.852-1.22-.435-2.557-.654-4.005-.654-1.466,0-2.814,.224-4.046,.666-1.232,.445-2.299,1.067-3.206,1.866-.904,.797-1.611,1.731-2.117,2.802-.508,1.069-.761,2.238-.761,3.505s.253,2.438,.761,3.507c.506,1.07,1.213,2.005,2.117,2.802,.907,.799,1.978,1.419,3.22,1.864,1.239,.445,2.584,.666,4.032,.666s2.785-.216,4.005-.654c1.223-.435,2.292-1.052,3.206-1.852,.914-.797,1.621-1.733,2.119-2.802,.498-1.069,.746-2.246,.746-3.531s-.248-2.46-.746-3.531c-.498-1.07-1.206-2.003-2.119-2.802Zm-.408,8.975c-.369,.807-.887,1.512-1.546,2.112-.664,.6-1.441,1.064-2.338,1.395-.894,.328-1.869,.493-2.919,.493-1.069,0-2.051-.165-2.946-.493-.897-.331-1.682-.795-2.35-1.395-.671-.6-1.191-1.305-1.563-2.112-.369-.804-.557-1.687-.557-2.642s.187-1.835,.557-2.642c.372-.807,.892-1.509,1.563-2.109,.668-.603,1.453-1.067,2.35-1.395,.894-.33,1.876-.496,2.946-.496,1.05,0,2.025,.165,2.919,.496,.897,.328,1.674,.792,2.338,1.395,.659,.6,1.176,1.303,1.546,2.109,.372,.807,.559,1.687,.559,2.642s-.187,1.837-.559,2.642Zm10.076-5.296c-.369,.814-.556,1.699-.556,2.654s.187,1.84,.556,2.654c.372,.817,.892,1.519,1.563,2.112,.671,.593,1.463,1.052,2.377,1.383,.914,.328,1.905,.493,2.975,.493,1.03,0,2-.168,2.904-.506,.906-.338,1.721-.86,2.445-1.568l1.767,1.555c-.87,.887-1.925,1.563-3.164,2.025-1.242,.462-2.603,.69-4.088,.69-1.449,0-2.785-.216-4.008-.654-1.223-.435-2.28-1.052-3.176-1.852-.897-.797-1.599-1.733-2.105-2.802-.508-1.069-.761-2.246-.761-3.531s.253-2.46,.761-3.531c.506-1.07,1.213-2.003,2.117-2.802,.906-.797,1.971-1.414,3.193-1.852,1.22-.435,2.557-.654,4.005-.654,1.466,0,2.819,.226,4.061,.68,1.239,.452,2.294,1.123,3.164,2.012l-1.767,1.556c-.724-.693-1.538-1.206-2.445-1.543-.904-.338-1.874-.508-2.904-.508-1.07,0-2.061,.165-2.975,.496-.914,.328-1.706,.79-2.377,1.381-.671,.593-1.191,1.298-1.563,2.112Zm15.632-5.989h15.671v2.148h-6.518v15.137h-2.661v-15.137h-6.492v-2.148Zm33.189,7.396c-1.213-.914-2.941-1.371-5.186-1.371h-5.651v-6.025h-2.688v17.285h7.85c2.372,0,4.214-.488,5.527-1.468,1.313-.979,1.969-2.426,1.969-4.333,0-1.811-.607-3.174-1.82-4.088Zm-2.158,6.975c-.841,.642-2.051,.962-3.626,.962h-5.053v-7.357h5.053c1.594,0,2.807,.287,3.641,.863,.831,.579,1.249,1.475,1.249,2.693,0,1.252-.423,2.197-1.264,2.839Z"/>
</svg>