<?xml version="1.0" encoding="UTF-8"?> <svg xmlns="http://www.w3.org/2000/svg" width="300" height="100" viewBox="0 0 300 100" fill="none"><g clip-path="url(#clip0_1351_2)"><mask id="mask0_1351_2" style="mask-type:luminance" maskUnits="userSpaceOnUse" x="0" y="0" width="300" height="100"><path d="M300 0H0V100H300V0Z" fill="white"></path></mask><g mask="url(#mask0_1351_2)"><path d="M293.16 47.2805H295.577L293.656 32.171H290.828L286.749 44.0857L282.367 32.171H279.518L279.302 32.3866C279.306 32.3908 279.317 32.5345 279.331 32.8224C279.349 33.1062 279.353 33.5166 279.346 34.0455C279.335 34.578 279.292 35.211 279.216 35.9485L277.964 47.2805H279.173L280.576 34.3726L280.662 34.2864L285.13 46.4817L285.497 46.8488H287.094L291.39 34.2431L291.476 34.3297L293.16 47.2805ZM273.668 41.7764C273.665 42.4743 273.561 43.1073 273.348 43.6688C273.136 44.2336 272.838 44.7155 272.445 45.1186C272.057 45.5212 271.593 45.8308 271.057 46.0463C270.518 46.2624 269.92 46.3702 269.265 46.3739C268.413 46.367 267.668 46.1868 267.031 45.8308C266.395 45.4747 265.902 44.9781 265.549 44.3414C265.197 43.7006 265.017 42.9562 265.013 42.0998V32.171H262.639V41.7548C262.642 42.5969 262.779 43.363 263.056 44.0572C263.33 44.7514 263.732 45.3521 264.254 45.8593C264.779 46.367 265.416 46.7553 266.164 47.0322C266.909 47.309 267.758 47.4495 268.704 47.4532C269.651 47.4495 270.5 47.309 271.251 47.0322C272.003 46.7553 272.647 46.367 273.176 45.8593C273.705 45.3521 274.111 44.7514 274.388 44.0572C274.669 43.363 274.809 42.5969 274.813 41.7548V32.171H273.668V41.7764ZM256.315 47.2805H258.667V32.171H256.315V47.2805ZM239.888 47.2805H241.032V35.9913L251.501 47.2805H252.213V32.171H250.983V43.503L240.515 32.171H239.651L239.457 32.3866C239.464 32.3866 239.5 32.6027 239.568 33.0343C239.636 33.4664 239.709 34.1137 239.777 34.977C239.845 35.8407 239.885 36.9196 239.888 38.215V47.2805ZM226.592 47.2805H236.586V45.9851L236.37 45.7695C236.373 45.7769 236.248 45.816 236 45.8916C235.748 45.9676 235.359 46.0463 234.834 46.1219C234.309 46.1974 233.632 46.2371 232.809 46.2444H228.945V40.0927H235.118V39.2077L234.946 39.0566H228.945V33.2071H232.593C233.417 33.2108 234.093 33.2541 234.618 33.3296C235.144 33.4052 235.532 33.4802 235.784 33.5595C236.032 33.635 236.158 33.6747 236.154 33.682L236.37 33.4664V32.171H226.592V47.2805ZM218.627 40.956L218.779 41.1287H220.678C220.735 41.4166 220.786 41.7833 220.825 42.2223C220.869 42.6646 220.894 43.1902 220.894 43.8052V45.5106C220.473 45.7119 219.995 45.8777 219.458 46.0141C218.923 46.1472 218.336 46.2191 217.699 46.2228C216.53 46.2154 215.534 45.9459 214.714 45.406C213.889 44.8703 213.263 44.1005 212.829 43.0962C212.397 42.0929 212.177 40.891 212.173 39.4883C212.177 38.1104 212.386 36.927 212.8 35.9448C213.213 34.959 213.807 34.2035 214.577 33.6783C215.343 33.1532 216.264 32.8869 217.332 32.8837C218.027 32.8837 218.627 32.9947 219.131 33.2181C219.638 33.4411 220.027 33.7829 220.304 34.2394C220.577 34.6964 220.717 35.2722 220.721 35.9702C220.717 36.2866 220.7 36.5418 220.66 36.7399C220.62 36.9376 220.584 37.0817 220.545 37.1716C220.509 37.2651 220.487 37.3084 220.483 37.3084L220.7 37.524C221.135 37.5203 221.505 37.5023 221.811 37.4664C222.121 37.4342 222.358 37.3982 222.523 37.3623C222.689 37.3296 222.772 37.3116 222.772 37.3084C222.775 37.3084 222.797 37.272 222.84 37.1932C222.879 37.114 222.923 36.9882 222.962 36.8118C223.006 36.639 223.027 36.4087 223.031 36.1213C223.027 35.2686 222.793 34.5347 222.337 33.9197C221.88 33.3043 221.228 32.833 220.386 32.5018C219.545 32.171 218.541 32.002 217.375 31.9983C216.152 32.002 215.062 32.189 214.098 32.5598C213.134 32.9265 212.314 33.4517 211.641 34.1353C210.965 34.8153 210.451 35.6283 210.098 36.5709C209.742 37.5097 209.566 38.5568 209.562 39.7043C209.566 40.8625 209.745 41.9165 210.101 42.8627C210.457 43.8126 210.972 44.6252 211.645 45.3088C212.318 45.9961 213.127 46.5213 214.08 46.8921C215.03 47.2625 216.098 47.4495 217.289 47.4532C218.084 47.4459 218.793 47.3703 219.415 47.2229C220.038 47.0792 220.577 46.8958 221.034 46.6798C221.491 46.46 221.869 46.2444 222.168 46.0252C222.466 45.8091 222.689 45.6258 222.833 45.4816C222.98 45.3342 223.052 45.2586 223.052 45.2512V40.0927L222.837 39.8766C222.837 39.8803 222.75 39.8987 222.577 39.9347C222.409 39.9669 222.16 40.0028 221.836 40.0351C221.513 40.071 221.121 40.089 220.656 40.0927H218.627V40.956ZM194.453 39.726C194.456 38.6393 194.575 37.6719 194.812 36.8261C195.05 35.9808 195.388 35.2612 195.827 34.6784C196.266 34.0925 196.787 33.6461 197.395 33.3402C198 33.038 198.676 32.8837 199.417 32.8837C200.158 32.8837 200.834 33.038 201.442 33.3402C202.047 33.6461 202.572 34.0925 203.007 34.6784C203.446 35.2612 203.784 35.9808 204.021 36.8261C204.259 37.6719 204.378 38.6393 204.381 39.726C204.378 40.8122 204.259 41.7801 204.021 42.6254C203.784 43.4708 203.446 44.1866 203.007 44.7731C202.572 45.3595 202.047 45.8054 201.442 46.1076C200.834 46.4135 200.158 46.5683 199.417 46.5683C198.676 46.5683 198 46.4135 197.395 46.1076C196.787 45.8054 196.266 45.3595 195.827 44.7731C195.388 44.1866 195.05 43.4708 194.812 42.6254C194.575 41.7801 194.456 40.8122 194.453 39.726ZM191.841 39.726C191.844 40.8804 192.028 41.9275 192.391 42.8737C192.751 43.8158 193.269 44.6289 193.938 45.3125C194.607 45.9961 195.406 46.5213 196.33 46.8921C197.255 47.2625 198.284 47.4495 199.417 47.4532C200.55 47.4495 201.579 47.2625 202.507 46.8921C203.435 46.5213 204.238 45.9961 204.906 45.3125C205.579 44.6289 206.097 43.8158 206.461 42.8737C206.827 41.9275 207.011 40.8804 207.015 39.726C207.011 38.5711 206.827 37.524 206.461 36.5782C206.097 35.6353 205.579 34.8189 204.906 34.139C204.238 33.4554 203.435 32.9302 202.507 32.5598C201.579 32.189 200.55 32.002 199.417 31.9983C198.284 32.002 197.255 32.189 196.33 32.5598C195.406 32.9302 194.607 33.4554 193.938 34.139C193.269 34.8189 192.751 35.6353 192.391 36.5782C192.028 37.524 191.844 38.5711 191.841 39.726ZM183.034 33.2071C183.771 33.2071 184.409 33.3296 184.948 33.5742C185.484 33.8152 185.901 34.1749 186.193 34.6462C186.488 35.1175 186.635 35.6965 186.639 36.3802C186.635 37.0564 186.488 37.6322 186.193 38.0998C185.901 38.5674 185.484 38.9235 184.948 39.1644C184.409 39.409 183.771 39.5316 183.034 39.5316H180.725V33.2071H183.034ZM178.372 47.2805H180.725V40.5676H183.358L187.286 47.2805H189.876L190.006 47.1294C190.002 47.1294 189.898 46.9999 189.69 46.741C189.481 46.4817 189.189 46.0823 188.819 45.5465C188.448 45.0103 188.017 44.3304 187.524 43.503L185.668 40.3083C186.383 40.1286 186.995 39.8591 187.506 39.503C188.02 39.1428 188.412 38.7038 188.686 38.1786C188.959 37.6571 189.096 37.0564 189.1 36.3802C189.092 35.4846 188.858 34.7254 188.394 34.0994C187.93 33.4733 187.272 32.9947 186.423 32.6676C185.574 32.3401 184.567 32.1747 183.401 32.171H178.372V47.2805ZM167.363 33.2071C168.123 33.2071 168.809 33.3549 169.432 33.6461C170.051 33.9377 170.587 34.362 171.033 34.9194C171.483 35.4772 171.828 36.1604 172.069 36.9666C172.31 37.7723 172.433 38.6932 172.436 39.726C172.433 40.7583 172.31 41.6755 172.069 42.4849C171.828 43.2906 171.483 43.9706 171.033 44.5321C170.587 45.0895 170.051 45.5143 169.432 45.8054C168.809 46.097 168.123 46.2444 167.363 46.2444H163.866V33.2071H167.363ZM161.514 47.2805H167.471C168.604 47.2768 169.634 47.0934 170.558 46.73C171.486 46.3702 172.281 45.8561 172.95 45.1867C173.619 44.5174 174.138 43.7223 174.497 42.8014C174.861 41.8773 175.044 40.8519 175.047 39.726C175.044 38.5996 174.861 37.5747 174.497 36.6496C174.138 35.7288 173.619 34.9341 172.95 34.2648C172.281 33.5954 171.486 33.0813 170.558 32.7215C169.634 32.3581 168.604 32.1747 167.471 32.171H161.514V47.2805ZM158.902 32.171H157.499L152.966 38.9921L148.434 32.171H145.541V32.3866C145.545 32.3866 145.624 32.4912 145.786 32.6925C145.944 32.8943 146.167 33.1854 146.455 33.5669C146.739 33.9483 147.074 34.4053 147.455 34.9447C147.837 35.4846 148.247 36.0922 148.693 36.7685L151.153 40.5676V47.2805H153.506V40.4165L158.902 32.171ZM140.62 47.2805H142.972V32.171H140.62V39.0566H132.353V32.171H130V47.2805H132.353V40.0927H140.62V47.2805Z" fill="#59665D"></path><path d="M294.028 70.3763C294.026 70.7129 293.961 70.9985 293.83 71.2321C293.701 71.4651 293.516 71.6403 293.278 71.7615C293.039 71.8823 292.757 71.9436 292.43 71.9436H291.377V68.8089H292.43C292.757 68.8089 293.039 68.8703 293.278 68.991C293.516 69.1102 293.701 69.2874 293.83 69.5205C293.961 69.7536 294.026 70.0396 294.028 70.3763ZM290.334 72.4485H292.592C293.109 72.4471 293.556 72.3661 293.933 72.2032C294.309 72.0422 294.601 71.8072 294.807 71.4985C295.013 71.1899 295.116 70.8164 295.12 70.3763C295.116 69.9361 295.013 69.5627 294.807 69.254C294.601 68.9454 294.309 68.7103 293.933 68.5494C293.556 68.3864 293.109 68.3055 292.592 68.304H291.377V65.0849H290.334V72.4485ZM285.765 65.5899H286.53C286.896 65.5918 287.196 65.6125 287.429 65.6493C287.661 65.6861 287.834 65.7234 287.945 65.7616C288.055 65.7984 288.111 65.8176 288.109 65.821L288.196 65.716V65.0849H282.281V65.716L282.376 65.821C282.376 65.8176 282.431 65.7984 282.541 65.7616C282.652 65.7234 282.825 65.6861 283.058 65.6493C283.291 65.6125 283.59 65.5918 283.956 65.5899H284.721V72.4485H285.765V65.5899ZM277.941 65.4319C278.262 65.4319 278.537 65.4932 278.766 65.6159C278.995 65.7391 279.173 65.9191 279.296 66.1542C279.418 66.3907 279.481 66.6788 279.482 67.0208C279.481 67.1783 279.473 67.3064 279.455 67.4045C279.437 67.5041 279.421 67.5782 279.404 67.6234C279.388 67.671 279.379 67.694 279.377 67.694L279.473 67.7883C279.665 67.7868 279.83 67.7794 279.966 67.7637C280.103 67.748 280.208 67.7343 280.281 67.7181C280.355 67.7024 280.391 67.694 280.391 67.694C280.393 67.694 280.404 67.6744 280.423 67.6342C280.444 67.5939 280.463 67.5292 280.484 67.4413C280.503 67.3535 280.514 67.2377 280.516 67.0944C280.516 66.7857 280.457 66.5031 280.34 66.2474C280.224 65.9932 280.055 65.7724 279.834 65.5864C279.613 65.4005 279.345 65.2567 279.031 65.1551C278.715 65.0535 278.359 65.0025 277.96 65.0005C277.431 65.0025 276.954 65.0938 276.531 65.2744C276.108 65.453 275.748 65.7091 275.45 66.0418C275.151 66.3735 274.921 66.7695 274.763 67.2293C274.606 67.6867 274.526 68.197 274.524 68.7564C274.526 69.3207 274.607 69.8345 274.767 70.2958C274.926 70.7585 275.156 71.1545 275.453 71.4877C275.75 71.8229 276.106 72.0785 276.518 72.2591C276.933 72.4397 277.394 72.531 277.903 72.5329C278.211 72.531 278.488 72.4996 278.737 72.4382C278.987 72.3769 279.206 72.2994 279.399 72.2032C279.592 72.1065 279.758 72.0049 279.897 71.8965C280.037 71.7875 280.152 71.686 280.241 71.5898C280.333 71.4931 280.398 71.4161 280.442 71.3547C280.486 71.2934 280.506 71.26 280.506 71.26L280.315 71.0495C280.315 71.0495 280.283 71.0795 280.221 71.132C280.158 71.1845 280.068 71.2492 279.946 71.3268C279.827 71.4053 279.68 71.4823 279.506 71.5613C279.334 71.6389 279.136 71.7036 278.914 71.7561C278.691 71.8086 278.447 71.8366 278.181 71.8381C277.656 71.8366 277.208 71.7159 276.836 71.472C276.464 71.2301 276.179 70.8724 275.981 70.3988C275.785 69.9258 275.684 69.3438 275.683 68.6509C275.684 67.9816 275.778 67.408 275.962 66.9276C276.145 66.4491 276.407 66.0791 276.743 65.821C277.08 65.5653 277.48 65.4338 277.941 65.4319ZM266.921 68.7667C266.923 68.2373 266.975 67.7657 267.081 67.3535C267.186 66.9418 267.336 66.5909 267.53 66.3073C267.725 66.0212 267.956 65.8038 268.226 65.6547C268.494 65.5074 268.794 65.4319 269.123 65.4319C269.451 65.4319 269.751 65.5074 270.021 65.6547C270.289 65.8038 270.522 66.0212 270.715 66.3073C270.909 66.5909 271.059 66.9418 271.164 67.3535C271.27 67.7657 271.323 68.2373 271.324 68.7667C271.323 69.2962 271.27 69.7678 271.164 70.18C271.059 70.5917 270.909 70.9406 270.715 71.2267C270.522 71.5123 270.289 71.7296 270.021 71.8773C269.751 72.026 269.451 72.1016 269.123 72.1016C268.794 72.1016 268.494 72.026 268.226 71.8773C267.956 71.7296 267.725 71.5123 267.53 71.2267C267.336 70.9406 267.186 70.5917 267.081 70.18C266.975 69.7678 266.923 69.2962 266.921 68.7667ZM265.763 68.7667C265.765 69.3296 265.846 69.8399 266.007 70.3007C266.167 70.76 266.396 71.1565 266.693 71.4897C266.99 71.8229 267.344 72.0785 267.754 72.2591C268.164 72.4397 268.62 72.531 269.123 72.5329C269.625 72.531 270.081 72.4397 270.493 72.2591C270.905 72.0785 271.26 71.8229 271.557 71.4897C271.855 71.1565 272.085 70.76 272.246 70.3007C272.409 69.8399 272.49 69.3296 272.491 68.7667C272.49 68.2039 272.409 67.694 272.246 67.2328C272.085 66.7735 271.855 66.3755 271.557 66.0438C271.26 65.7106 270.905 65.4549 270.493 65.2744C270.081 65.0938 269.625 65.0025 269.123 65.0005C268.62 65.0025 268.164 65.0938 267.754 65.2744C267.344 65.4549 266.99 65.7106 266.693 66.0438C266.396 66.3755 266.167 66.7735 266.007 67.2328C265.846 67.694 265.765 68.2039 265.763 68.7667ZM259.165 67.3152V65.5899H261.988V71.9436H258.38C258.552 71.7439 258.698 71.4475 258.814 71.0549C258.931 70.6623 259.017 70.1589 259.075 69.5435C259.135 68.9282 259.165 68.1848 259.165 67.3152ZM263.855 71.9436H263.032V65.0849H258.533L258.438 65.19C258.44 65.1919 258.45 65.292 258.473 65.4863C258.493 65.6812 258.516 65.956 258.537 66.3102C258.559 66.6645 258.57 67.0836 258.572 67.5674C258.57 68.2162 258.546 68.781 258.5 69.2614C258.454 69.7418 258.391 70.1486 258.313 70.4813C258.235 70.8164 258.149 71.0863 258.053 71.2934C257.958 71.502 257.859 71.658 257.758 71.7596C257.658 71.8631 257.562 71.9245 257.471 71.9436H256.907L256.811 72.0491L256.887 74.3633H257.423L257.519 74.2583C257.522 73.9035 257.54 73.5919 257.573 73.3215C257.607 73.0501 257.642 72.8377 257.675 72.6836C257.708 72.5295 257.726 72.452 257.729 72.4485H263.032C263.035 72.452 263.053 72.5295 263.086 72.6836C263.121 72.8377 263.155 73.0501 263.188 73.3215C263.222 73.5919 263.241 73.9035 263.243 74.2583L263.338 74.3633H263.874L263.941 72.0491L263.855 71.9436ZM249.428 68.7667C249.429 68.2373 249.482 67.7657 249.588 67.3535C249.692 66.9418 249.842 66.5909 250.037 66.3073C250.231 66.0212 250.463 65.8038 250.733 65.6547C251 65.5074 251.301 65.4319 251.629 65.4319C251.958 65.4319 252.258 65.5074 252.527 65.6547C252.795 65.8038 253.028 66.0212 253.221 66.3073C253.416 66.5909 253.566 66.9418 253.671 67.3535C253.776 67.7657 253.829 68.2373 253.83 68.7667C253.829 69.2962 253.776 69.7678 253.671 70.18C253.566 70.5917 253.416 70.9406 253.221 71.2267C253.028 71.5123 252.795 71.7296 252.527 71.8773C252.258 72.026 251.958 72.1016 251.629 72.1016C251.301 72.1016 251 72.026 250.733 71.8773C250.463 71.7296 250.231 71.5123 250.037 71.2267C249.842 70.9406 249.692 70.5917 249.588 70.18C249.482 69.7678 249.429 69.2962 249.428 68.7667ZM248.27 68.7667C248.271 69.3296 248.352 69.8399 248.514 70.3007C248.673 70.76 248.903 71.1565 249.2 71.4897C249.496 71.8229 249.851 72.0785 250.26 72.2591C250.671 72.4397 251.126 72.531 251.629 72.5329C252.131 72.531 252.588 72.4397 253 72.2591C253.411 72.0785 253.766 71.8229 254.063 71.4897C254.362 71.1565 254.591 70.76 254.752 70.3007C254.915 69.8399 254.996 69.3296 254.998 68.7667C254.996 68.2039 254.915 67.694 254.752 67.2328C254.591 66.7735 254.362 66.3755 254.063 66.0438C253.766 65.7106 253.411 65.4549 253 65.2744C252.588 65.0938 252.131 65.0025 251.629 65.0005C251.126 65.0025 250.671 65.0938 250.26 65.2744C249.851 65.4549 249.496 65.7106 249.2 66.0438C248.903 66.3755 248.673 66.7735 248.514 67.2328C248.352 67.694 248.271 68.2039 248.27 68.7667ZM239.939 71.5123C239.941 71.6963 239.949 71.8562 239.965 71.9927C239.979 72.1296 239.995 72.2365 240.011 72.3116C240.025 72.3872 240.033 72.426 240.035 72.4274C240.036 72.4294 240.058 72.4382 240.1 72.4554C240.145 72.4716 240.204 72.4888 240.282 72.5045C240.359 72.5226 240.45 72.531 240.552 72.5329C240.82 72.5344 241.053 72.4417 241.248 72.2522C241.447 72.0614 241.609 71.7596 241.738 71.3474C241.867 70.9357 241.963 70.3974 242.027 69.7329C242.09 69.068 242.121 68.2618 242.121 67.3152V65.5899H244.849V72.4485H245.892V65.0849H241.49L241.394 65.19C241.394 65.19 241.407 65.2724 241.429 65.4392C241.45 65.6056 241.472 65.8652 241.493 66.2141C241.515 66.563 241.527 67.012 241.528 67.5571C241.53 68.4703 241.494 69.2192 241.423 69.8031C241.352 70.3866 241.239 70.8179 241.084 71.0966C240.93 71.3758 240.725 71.5142 240.475 71.5123C240.394 71.5108 240.321 71.502 240.255 71.4843C240.188 71.4686 240.136 71.4509 240.096 71.4352C240.056 71.418 240.035 71.4072 240.035 71.4072L239.939 71.5123ZM232.604 68.7667C232.606 68.2373 232.659 67.7657 232.764 67.3535C232.869 66.9418 233.019 66.5909 233.213 66.3073C233.408 66.0212 233.64 65.8038 233.909 65.6547C234.177 65.5074 234.477 65.4319 234.805 65.4319C235.134 65.4319 235.434 65.5074 235.703 65.6547C235.971 65.8038 236.204 66.0212 236.397 66.3073C236.592 66.5909 236.742 66.9418 236.847 67.3535C236.952 67.7657 237.005 68.2373 237.007 68.7667C237.005 69.2962 236.952 69.7678 236.847 70.18C236.742 70.5917 236.592 70.9406 236.397 71.2267C236.204 71.5123 235.971 71.7296 235.703 71.8773C235.434 72.026 235.134 72.1016 234.805 72.1016C234.477 72.1016 234.177 72.026 233.909 71.8773C233.64 71.7296 233.408 71.5123 233.213 71.2267C233.019 70.9406 232.869 70.5917 232.764 70.18C232.659 69.7678 232.606 69.2962 232.604 68.7667ZM231.446 68.7667C231.448 69.3296 231.529 69.8399 231.69 70.3007C231.849 70.76 232.079 71.1565 232.376 71.4897C232.673 71.8229 233.027 72.0785 233.436 72.2591C233.846 72.4397 234.303 72.531 234.805 72.5329C235.308 72.531 235.764 72.4397 236.176 72.2591C236.587 72.0785 236.943 71.8229 237.239 71.4897C237.538 71.1565 237.768 70.76 237.929 70.3007C238.091 69.8399 238.173 69.3296 238.175 68.7667C238.173 68.2039 238.091 67.694 237.929 67.2328C237.768 66.7735 237.538 66.3755 237.239 66.0438C236.943 65.7106 236.587 65.4549 236.176 65.2744C235.764 65.0938 235.308 65.0025 234.805 65.0005C234.303 65.0025 233.846 65.0938 233.436 65.2744C233.027 65.4549 232.673 65.7106 232.376 66.0438C232.079 66.3755 231.849 66.7735 231.69 67.2328C231.529 67.694 231.448 68.2039 231.446 68.7667ZM228.303 72.4485H229.375L228.523 65.0849H227.269L225.46 70.8915L223.518 65.0849H222.254L222.158 65.19C222.16 65.1919 222.165 65.2621 222.171 65.4024C222.179 65.5408 222.18 65.7405 222.178 65.9982C222.173 66.2577 222.153 66.5664 222.12 66.9261L221.565 72.4485H222.101L222.723 66.1581L222.761 66.1159L224.742 72.0594L224.905 72.238H225.613L227.518 66.0948L227.556 66.137L228.303 72.4485ZM213.621 72.4485H214.693L213.841 65.0849H212.588L210.779 70.8915L208.836 65.0849H207.572L207.477 65.19C207.478 65.1919 207.483 65.2621 207.49 65.4024C207.497 65.5408 207.499 65.7405 207.496 65.9982C207.491 66.2577 207.472 66.5664 207.439 66.9261L206.883 72.4485H207.419L208.041 66.1581L208.08 66.1159L210.061 72.0594L210.223 72.238H210.932L212.836 66.0948L212.875 66.137L213.621 72.4485ZM200.371 72.4485H204.802V71.8175L204.707 71.7125C204.708 71.7159 204.652 71.735 204.542 71.7718C204.431 71.8086 204.259 71.8474 204.026 71.8842C203.793 71.921 203.493 71.9402 203.127 71.9436H201.415V68.9454H204.152V68.514L204.075 68.4409H201.415V65.5899H203.032C203.397 65.5918 203.697 65.6125 203.93 65.6493C204.163 65.6861 204.335 65.7234 204.447 65.7616C204.557 65.7984 204.613 65.8176 204.611 65.821L204.707 65.716V65.0849H200.371V72.4485ZM195.132 66.9261L196.243 69.8502H193.4L194.797 66.1159C194.845 66.2263 194.898 66.349 194.953 66.4859C195.011 66.6209 195.07 66.7681 195.132 66.9261ZM193.208 70.3552H196.433L197.228 72.4485H198.309L195.496 65.0849H194.347V65.19C194.347 65.19 194.362 65.213 194.389 65.2601C194.414 65.3072 194.452 65.3794 194.501 65.4741L191.859 72.4485H192.423L193.208 70.3552ZM180.82 72.4485H189.433C189.435 72.452 189.449 72.5295 189.477 72.6836C189.502 72.8377 189.528 73.0501 189.555 73.3215C189.58 73.5919 189.594 73.9035 189.596 74.2583L189.692 74.3633H190.228L190.343 72.0491L190.256 71.9436H189.433V65.0849H188.39V71.9436H185.653V65.0849H184.6V71.9436H181.863V65.0849H180.82V72.4485ZM175.581 66.9261L176.691 69.8502H173.848L175.246 66.1159C175.293 66.2263 175.346 66.349 175.402 66.4859C175.46 66.6209 175.518 66.7681 175.581 66.9261ZM173.657 70.3552H176.882L177.677 72.4485H178.758L175.944 65.0849H174.796V65.19C174.796 65.19 174.81 65.213 174.837 65.2601C174.863 65.3072 174.901 65.3794 174.949 65.4741L172.307 72.4485H172.872L173.657 70.3552ZM167.997 65.5899C168.327 65.5899 168.611 65.6532 168.85 65.7773C169.088 65.9039 169.271 66.086 169.4 66.3264C169.528 66.5684 169.593 66.8608 169.595 67.2097C169.593 67.5571 169.528 67.8516 169.4 68.0935C169.271 68.3334 169.088 68.516 168.85 68.6406C168.611 68.7667 168.327 68.83 167.997 68.83H166.877V65.5899H167.997ZM165.833 72.4485H166.877V69.3345H168.169C168.686 69.333 169.131 69.2491 169.507 69.0823C169.882 68.9159 170.173 68.6755 170.377 68.3585C170.581 68.0429 170.683 67.6602 170.686 67.2097C170.683 66.7592 170.581 66.377 170.377 66.0595C170.173 65.744 169.882 65.502 169.507 65.3357C169.131 65.1708 168.686 65.0869 168.169 65.0849H165.833V72.4485ZM162.078 66.9889C162.078 67.2818 162.023 67.5306 161.915 67.7392C161.806 67.9477 161.646 68.1077 161.435 68.2196C161.223 68.3305 160.961 68.3864 160.652 68.3879H159.398V65.5899H160.652C160.961 65.5899 161.223 65.6458 161.435 65.7562C161.646 65.8652 161.806 66.0246 161.915 66.2332C162.023 66.4418 162.078 66.693 162.078 66.9889ZM162.394 70.4185C162.394 70.7443 162.332 71.0215 162.212 71.2492C162.091 71.4755 161.915 71.6472 161.687 71.765C161.458 71.8842 161.18 71.9436 160.853 71.9436H159.398V68.8928H160.853C161.18 68.8928 161.458 68.9527 161.687 69.068C161.915 69.1858 162.091 69.3556 162.212 69.5838C162.332 69.81 162.394 70.0887 162.394 70.4185ZM158.355 72.4485H161.015C161.823 72.4451 162.435 72.2768 162.853 71.9436C163.273 71.6104 163.483 71.1251 163.485 70.4921C163.483 69.9852 163.348 69.5735 163.076 69.254C162.807 68.937 162.41 68.7211 161.886 68.6087C162.303 68.4811 162.616 68.2741 162.826 67.9865C163.035 67.7009 163.14 67.3432 163.14 66.9153C163.14 66.5281 163.054 66.1984 162.882 65.9265C162.71 65.6547 162.451 65.4461 162.107 65.3023C161.762 65.1585 161.331 65.0869 160.815 65.0849H158.355V72.4485ZM153.355 72.1016C153.13 72.0996 152.928 72.0648 152.747 71.9961C152.567 71.9279 152.407 71.8381 152.269 71.7296C152.13 71.6232 152.012 71.5069 151.911 71.3861C151.811 71.2654 151.729 71.1496 151.665 71.0422C151.602 70.9337 151.556 70.8444 151.525 70.7762C151.494 70.7075 151.479 70.6727 151.479 70.6707H151.354C151.354 70.6707 151.329 70.6884 151.286 70.7266C151.243 70.7639 151.192 70.8233 151.135 70.9043C151.077 70.9847 151.028 71.0883 150.983 71.2159C150.94 71.3459 150.918 71.5 150.914 71.6806C150.913 71.6825 150.937 71.7125 150.983 71.7699C151.031 71.8263 151.108 71.8965 151.216 71.9804C151.324 72.0648 151.469 72.1487 151.653 72.2331C151.835 72.317 152.063 72.3872 152.332 72.4431C152.604 72.501 152.926 72.531 153.298 72.5329C153.87 72.5329 154.359 72.4534 154.762 72.2979C155.164 72.1438 155.472 71.9156 155.685 71.6138C155.897 71.3125 156.004 70.9406 156.006 70.5024C156.004 69.996 155.866 69.5838 155.59 69.2682C155.315 68.9508 154.918 68.7422 154.398 68.6406C154.824 68.5072 155.143 68.2952 155.354 68.0007C155.566 67.7078 155.671 67.3432 155.671 66.905C155.671 66.507 155.583 66.1665 155.408 65.8828C155.231 65.5987 154.967 65.3813 154.618 65.2302C154.268 65.0781 153.83 65.0025 153.307 65.0005C152.961 65.0025 152.66 65.0324 152.403 65.0884C152.144 65.1463 151.926 65.2165 151.747 65.3004C151.568 65.3848 151.423 65.4692 151.313 65.5531C151.205 65.637 151.125 65.7072 151.074 65.7636C151.025 65.821 151.001 65.8509 151.001 65.8529C151.004 66.0335 151.026 66.1876 151.069 66.3176C151.114 66.4452 151.163 66.5487 151.221 66.6297C151.278 66.7102 151.329 66.7695 151.373 66.8068C151.416 66.8451 151.439 66.8628 151.441 66.8628H151.565C151.565 66.8608 151.583 66.824 151.616 66.7558C151.65 66.6871 151.699 66.5998 151.766 66.4913C151.831 66.3838 151.916 66.2685 152.015 66.1473C152.115 66.0266 152.23 65.9108 152.364 65.8019C152.497 65.6949 152.645 65.6056 152.811 65.5374C152.975 65.4692 153.157 65.4338 153.355 65.4319C153.763 65.4338 154.073 65.5565 154.282 65.8019C154.492 66.0492 154.599 66.4089 154.599 66.8839C154.601 67.38 154.483 67.7569 154.248 68.0164C154.013 68.276 153.65 68.4075 153.164 68.409H152.446V68.8403L152.513 68.9144H153.374C153.873 68.9159 154.255 69.0489 154.518 69.3153C154.781 69.5803 154.914 69.9695 154.915 70.4813C154.914 70.8253 154.851 71.1182 154.725 71.3596C154.601 71.6001 154.422 71.7841 154.189 71.9102C153.957 72.0363 153.679 72.1016 153.355 72.1016ZM143.292 68.7667C143.293 68.2373 143.346 67.7657 143.452 67.3535C143.557 66.9418 143.707 66.5909 143.901 66.3073C144.096 66.0212 144.327 65.8038 144.597 65.6547C144.865 65.5074 145.165 65.4319 145.493 65.4319C145.822 65.4319 146.122 65.5074 146.391 65.6547C146.66 65.8038 146.892 66.0212 147.085 66.3073C147.28 66.5909 147.43 66.9418 147.535 67.3535C147.641 67.7657 147.693 68.2373 147.695 68.7667C147.693 69.2962 147.641 69.7678 147.535 70.18C147.43 70.5917 147.28 70.9406 147.085 71.2267C146.892 71.5123 146.66 71.7296 146.391 71.8773C146.122 72.026 145.822 72.1016 145.493 72.1016C145.165 72.1016 144.865 72.026 144.597 71.8773C144.327 71.7296 144.096 71.5123 143.901 71.2267C143.707 70.9406 143.557 70.5917 143.452 70.18C143.346 69.7678 143.293 69.2962 143.292 68.7667ZM142.134 68.7667C142.135 69.3296 142.217 69.8399 142.378 70.3007C142.538 70.76 142.767 71.1565 143.064 71.4897C143.361 71.8229 143.715 72.0785 144.125 72.2591C144.535 72.4397 144.991 72.531 145.493 72.5329C145.996 72.531 146.452 72.4397 146.864 72.2591C147.275 72.0785 147.631 71.8229 147.928 71.4897C148.226 71.1565 148.456 70.76 148.617 70.3007C148.78 69.8399 148.861 69.3296 148.863 68.7667C148.861 68.2039 148.78 67.694 148.617 67.2328C148.456 66.7735 148.226 66.3755 147.928 66.0438C147.631 65.7106 147.275 65.4549 146.864 65.2744C146.452 65.0938 145.996 65.0025 145.493 65.0005C144.991 65.0025 144.535 65.0938 144.125 65.2744C143.715 65.4549 143.361 65.7106 143.064 66.0438C142.767 66.3755 142.538 66.7735 142.378 67.2328C142.217 67.694 142.135 68.2039 142.134 68.7667ZM138.723 66.9889C138.723 67.2818 138.669 67.5306 138.56 67.7392C138.452 67.9477 138.291 68.1077 138.08 68.2196C137.868 68.3305 137.606 68.3864 137.297 68.3879H136.043V65.5899H137.297C137.606 65.5899 137.868 65.6458 138.08 65.7562C138.291 65.8652 138.452 66.0246 138.56 66.2332C138.669 66.4418 138.723 66.693 138.723 66.9889ZM139.039 70.4185C139.039 70.7443 138.977 71.0215 138.857 71.2492C138.736 71.4755 138.56 71.6472 138.332 71.765C138.103 71.8842 137.825 71.9436 137.498 71.9436H136.043V68.8928H137.498C137.825 68.8928 138.103 68.9527 138.332 69.068C138.56 69.1858 138.736 69.3556 138.857 69.5838C138.977 69.81 139.039 70.0887 139.039 70.4185ZM135 72.4485H137.661C138.468 72.4451 139.08 72.2768 139.498 71.9436C139.917 71.6104 140.128 71.1251 140.13 70.4921C140.128 69.9852 139.993 69.5735 139.722 69.254C139.452 68.937 139.055 68.7211 138.532 68.6087C138.948 68.4811 139.26 68.2741 139.471 67.9865C139.68 67.7009 139.785 67.3432 139.785 66.9153C139.785 66.5281 139.7 66.1984 139.527 65.9265C139.355 65.6547 139.096 65.4461 138.751 65.3023C138.407 65.1585 137.976 65.0869 137.46 65.0849H135V72.4485Z" fill="#59665D"></path><path fill-rule="evenodd" clip-rule="evenodd" d="M87.6668 2.47545H12.3325C9.71002 2.47545 7.22053 3.52112 5.3685 5.37314C3.51648 7.22517 2.47152 9.71466 2.47152 12.3371V87.6715C2.47152 90.2939 3.51648 92.7834 5.3685 94.6354C7.22053 96.4874 9.71002 97.5331 12.3325 97.5331H87.6668C90.2893 97.5331 92.778 96.4867 94.6301 94.6354C96.4835 92.7827 97.5285 90.2932 97.5285 87.6715V12.3371C97.5285 9.71466 96.4828 7.22517 94.6301 5.37314C92.778 3.52112 90.2893 2.47545 87.6668 2.47545ZM87.8997 10.0546H12.0996C11.5541 10.0546 11.0381 10.2731 10.6529 10.6576C10.2684 11.042 10.0507 11.5588 10.0507 12.1035V87.905C10.0507 88.4491 10.2684 88.9658 10.6529 89.351C11.0381 89.7348 11.5541 89.9532 12.0996 89.9532H87.8997C88.4451 89.9532 88.9619 89.7355 89.3464 89.351C89.7309 88.9658 89.9493 88.4491 89.9493 87.905V12.1035C89.9493 11.5588 89.7309 11.042 89.3464 10.6576C88.9619 10.2723 88.4451 10.0546 87.8997 10.0546ZM12.0996 7.91726C10.9864 7.91726 9.92777 8.35924 9.14154 9.14619C8.35459 9.9317 7.91261 10.9903 7.91261 12.1035V87.905C7.91261 89.0183 8.35459 90.0761 9.14154 90.8624C9.92777 91.6493 10.9864 92.092 12.0996 92.092H87.8997C89.0136 92.092 90.0715 91.6493 90.8577 90.8624C91.6447 90.0761 92.0867 89.0183 92.0867 87.905V12.1035C92.0867 10.9903 91.6447 9.9317 90.8577 9.14619C90.0715 8.35924 89.0129 7.91726 87.8997 7.91726H12.0996ZM21.2577 16.3631C21.2577 14.3954 18.7862 14.3954 18.7862 16.3631V32.1409C18.7862 34.1086 21.2577 34.1086 21.2577 32.1409V16.3631ZM60.7374 36.2682C60.659 36.2682 60.5936 36.3329 60.5936 36.4113V53.298C60.5936 53.7083 60.2594 54.0432 59.8484 54.0432H40.1466C39.7362 54.0432 39.4021 53.7083 39.4021 53.298V36.4113C39.4021 36.3329 39.3367 36.2682 39.2583 36.2682H32.1284C32.05 36.2682 31.9846 36.3329 31.9846 36.4113V79.5131C31.9846 79.5914 32.05 79.6568 32.1284 79.6568H39.2583C39.3367 79.6568 39.4021 79.5914 39.4021 79.5131V62.2059C39.4021 61.7963 39.737 61.4607 40.1466 61.4607H59.8484C60.2587 61.4607 60.5936 61.7956 60.5936 62.2059V79.5131C60.5936 79.5914 60.659 79.6568 60.7374 79.6568H67.8673C67.9464 79.6568 68.0103 79.5914 68.0103 79.5131V36.4113C68.0103 36.3329 67.9464 36.2682 67.8673 36.2682H60.7374ZM58.1228 63.9315V79.5131C58.1228 80.9562 59.295 82.1276 60.7374 82.1276H67.8673C69.3097 82.1276 70.4819 80.9562 70.4819 79.5131V36.4113C70.4819 34.9689 69.3097 33.7967 67.8673 33.7967H60.7374C59.2943 33.7967 58.1228 34.9689 58.1228 36.4113V51.5724H41.8729V36.4113C41.8729 34.9689 40.7007 33.7967 39.2583 33.7967H32.1284C30.686 33.7967 29.5138 34.9689 29.5138 36.4113V79.5131C29.5138 80.9562 30.686 82.1276 32.1284 82.1276H39.2583C40.7007 82.1276 41.8729 80.9562 41.8729 79.5131V63.9315H58.1228ZM12.3325 0.00463867H87.6668C90.9454 0.00463867 94.0609 1.30904 96.3779 3.62605C98.6949 5.94233 100 9.05851 100 12.3371V87.6715C100 90.9508 98.6949 94.0662 96.3779 96.3825C94.0609 98.6995 90.9454 100.004 87.6668 100.004H12.3325C9.05315 100.004 5.93769 98.6995 3.6214 96.3825C1.3044 94.0662 0 90.9508 0 87.6715V12.3371C0 9.05851 1.30511 5.94233 3.6214 3.62605C5.93769 1.30904 9.05315 0.00463867 12.3325 0.00463867Z" fill="#59665D"></path></g></g><defs><clipPath id="clip0_1351_2"><rect width="300" height="100" fill="white"></rect></clipPath></defs></svg> 